Coordinates
version=1
nRows=8
nColumns=36
inDegrees=yes

Units are S.I. units (second, meters, Newtons, ...)
If the header above contains a line with 'inDegrees', this indicates whether rotational values are in degrees (yes) or radians (no).

endheader
time	pelvis_tilt	pelvis_list	pelvis_rotation	pelvis_tx	pelvis_ty	pelvis_tz	hip_flexion_r	hip_adduction_r	hip_rotation_r	knee_angle_r	knee_angle_r_beta	ankle_angle_r	subtalar_angle_r	mtp_angle_r	hip_flexion_l	hip_adduction_l	hip_rotation_l	knee_angle_l	knee_angle_l_beta	ankle_angle_l	subtalar_angle_l	mtp_angle_l	lumbar_extension	lumbar_bending	lumbar_rotation	arm_flex_r	arm_add_r	arm_rot_r	elbow_flex_r	pro_sup_r	arm_flex_l	arm_add_l	arm_rot_l	elbow_flex_l	pro_sup_l
      2.43333330	    -14.73620046	     15.56005944	     13.45992786	      0.98965266	      0.81192814	      0.05091089	     76.94484456	    -27.99595170	      8.87673961	     31.93542252	      0.55737827	     -6.16748717	      9.74224833	     -7.49999987	     60.52589498	     24.64492077	    -10.14973860	     65.48016530	      1.14284448	     17.33711976	    -25.17309395	     -7.49999987	    -43.82763266	    -10.80595138	    -14.70417551	     78.05720953	     -5.91003730	     72.32702572	    119.86805027	     91.32948851	     90.58968275	     -6.51438544	     72.81946961	    116.97594645	     91.58906719
      2.45000000	    -15.14000387	     15.44385581	     13.83258361	      0.99074815	      0.80827392	      0.05111082	     77.85682639	    -28.18720363	      8.98597987	     32.60837975	      0.56912359	     -6.00588841	      9.64859805	     -7.49999987	     61.60323640	     24.54810344	    -10.38337091	     66.09437785	      1.15356451	     17.22006011	    -25.25582520	     -7.49999987	    -44.25358434	    -10.37443155	    -14.62886941	     79.36486369	     -6.05674710	     73.10707569	    119.88640328	     89.42801716	     91.49968121	     -6.36673377	     72.28883018	    115.93380324	     89.71342832
      2.46666670	    -15.38480478	     15.57033130	     14.06147400	      0.99658093	      0.80461667	      0.04793875	     78.58254760	    -28.41601762	      9.30000669	     33.15081146	      0.57859081	     -5.70526303	      9.59738707	     -7.49999987	     62.30209064	     24.59146239	    -10.73959939	     66.54838353	      1.16148840	     17.20070951	    -25.35923622	     -7.49999987	    -44.71296634	    -10.23260820	    -14.89423599	     79.62727983	     -6.24272860	     74.07690321	    120.63756305	     89.57397330	     92.22174379	     -6.89579557	     71.08326065	    115.51178204	     89.84217172
      2.48333330	    -15.50679317	     15.76530007	     14.05441324	      0.99760117	      0.80095190	      0.04134766	     79.11407378	    -28.60356336	      9.57930060	     33.58627521	      0.58619109	     -5.40289341	      9.68764145	     -7.49999987	     62.82478593	     24.68812666	    -11.03854987	     66.97410979	      1.16891873	     17.22003824	    -25.16010186	     -7.49999987	    -44.92746747	    -10.05857734	    -14.95026508	     79.60240707	     -6.70090949	     76.16913137	    121.17450438	     89.90408903	     92.05729930	     -6.85608162	     70.18665391	    115.06430561	     90.15360504
      2.50000000	    -15.55959183	     15.80774804	     14.12061313	      0.99116295	      0.79981238	      0.04371202	     79.56085184	    -28.78768650	      9.72092836	     33.99061393	      0.59324813	     -5.42467945	      9.64616931	     -7.49999987	     63.37390458	     24.69897344	    -11.26355712	     67.45366028	      1.17728846	     17.12504796	    -25.07418247	     -7.49999987	    -45.30572344	     -9.69105920	    -14.83332684	     80.12476169	     -7.42955962	     75.86552706	    120.24983789	     89.92508431	     92.88824462	     -6.83617967	     69.67877795	    114.89646528	     90.21765399
      2.51666670	    -15.82685422	     16.00703890	     14.15098418	      0.99742546	      0.79395736	      0.04148679	     80.32793041	    -28.88400759	     10.15268178	     34.45035452	      0.60127211	     -5.21058182	      9.54810498	     -7.49999987	     63.96976511	     24.70361043	    -11.72672788	     67.86971352	      1.18454996	     17.73185688	    -24.32080926	     -7.49999987	    -45.26219347	     -9.64090341	    -15.09657549	     80.09958706	     -7.28825560	     75.66552310	    119.40325655	     91.07688223	     92.72353930	     -7.05714538	     68.47779789	    114.75131098	     93.51238633
      2.53333330	    -15.98727783	     16.04754371	     14.18272996	      0.99002078	      0.78734330	      0.04303300	     81.07738463	    -28.92286815	     10.44132413	     35.02060082	      0.61122479	     -5.21468006	      9.23796355	     -7.49999987	     64.69002469	     24.53016335	    -12.18650738	     68.48859695	      1.19535152	     17.76345163	    -24.34198278	     -7.49999987	    -45.37457483	     -9.48851347	    -15.19780697	     81.15725408	     -7.33227617	     74.49163934	    119.63142448	     91.02793701	     93.48698527	     -7.07139839	     68.40533827	    115.06970480	     93.68018331
      2.55000000	    -16.19510464	     16.05854648	     14.36953116	      0.98420426	      0.78315164	      0.04530031	     82.04946958	    -28.93410797	     11.07017318	     35.84566429	      0.62562486	     -5.30774727	      8.53246969	     -7.49999987	     65.62672530	     24.28866144	    -12.72437888	     69.19566330	      1.20769215	     17.78633747	    -24.30936284	     -7.49999987	    -45.59734083	     -9.35549691	    -15.49995400	     81.91921152	     -7.53790483	     73.39156451	    120.00569252	     90.86188298	     94.25367949	     -7.29440376	     69.34806440	    115.60985598	     93.94376100
